<mxfile host="app.diagrams.net" agent="Mozilla/5.0 (Windows NT 10.0; Win64; x64) AppleWebKit/537.36 (KHTML, like Gecko) Chrome/135.0.0.0 Safari/537.36" version="26.1.1">
  <diagram name="第 1 页" id="MV-cYcS_WrAfdKn1Sm54">
    <mxGraphModel dx="1535" dy="781" grid="1" gridSize="10" guides="1" tooltips="1" connect="1" arrows="1" fold="1" page="1" pageScale="1" pageWidth="827" pageHeight="1169" math="0" shadow="0">
      <root>
        <mxCell id="0" />
        <mxCell id="1" parent="0" />
        <mxCell id="gCicSmpqmSLNO9FE7GVW-39" value="" style="rounded=0;whiteSpace=wrap;html=1;" parent="1" vertex="1">
          <mxGeometry x="160" y="140" width="360" height="610" as="geometry" />
        </mxCell>
        <mxCell id="gCicSmpqmSLNO9FE7GVW-2" value="Administrators" style="shape=umlActor;verticalLabelPosition=bottom;verticalAlign=top;html=1;outlineConnect=0;" parent="1" vertex="1">
          <mxGeometry x="591" y="543" width="30" height="60" as="geometry" />
        </mxCell>
        <mxCell id="gCicSmpqmSLNO9FE7GVW-5" value="Registered&amp;nbsp;&lt;div&gt;Users&lt;/div&gt;" style="shape=umlActor;verticalLabelPosition=bottom;verticalAlign=top;html=1;outlineConnect=0;" parent="1" vertex="1">
          <mxGeometry x="70" y="430" width="30" height="60" as="geometry" />
        </mxCell>
        <mxCell id="gCicSmpqmSLNO9FE7GVW-6" value="Guests" style="shape=umlActor;verticalLabelPosition=bottom;verticalAlign=top;html=1;outlineConnect=0;" parent="1" vertex="1">
          <mxGeometry x="590" y="370" width="30" height="60" as="geometry" />
        </mxCell>
        <mxCell id="gCicSmpqmSLNO9FE7GVW-7" value="Manage&lt;div&gt;&lt;span class=&quot;fontstyle0&quot;&gt;Transactions&lt;/span&gt; &lt;br/&gt;&lt;br style=&quot;font-variant-numeric: normal; font-variant-east-asian: normal; font-variant-alternates: normal; font-variant-position: normal; font-variant-emoji: normal; line-height: normal; text-align: -webkit-auto; text-size-adjust: auto;&quot;&gt;&lt;/div&gt;" style="ellipse;whiteSpace=wrap;html=1;" parent="1" vertex="1">
          <mxGeometry x="195" y="360" width="120" height="80" as="geometry" />
        </mxCell>
        <mxCell id="gCicSmpqmSLNO9FE7GVW-9" value="Mange user&amp;nbsp; accounts" style="ellipse;whiteSpace=wrap;html=1;" parent="1" vertex="1">
          <mxGeometry x="369" y="650" width="120" height="80" as="geometry" />
        </mxCell>
        <mxCell id="gCicSmpqmSLNO9FE7GVW-10" value="&lt;div&gt;Filter&lt;/div&gt;Transactions" style="ellipse;whiteSpace=wrap;html=1;" parent="1" vertex="1">
          <mxGeometry x="195" y="452" width="120" height="80" as="geometry" />
        </mxCell>
        <mxCell id="gCicSmpqmSLNO9FE7GVW-12" value="&lt;span style=&quot;color: rgb(0, 0, 0); font-family: Helvetica; font-size: 12px; font-style: normal; font-variant-ligatures: normal; font-variant-caps: normal; font-weight: 400; letter-spacing: normal; orphans: 2; text-align: center; text-indent: 0px; text-transform: none; widows: 2; word-spacing: 0px; -webkit-text-stroke-width: 0px; white-space: normal; background-color: rgb(251, 251, 251); text-decoration-thickness: initial; text-decoration-style: initial; text-decoration-color: initial; float: none; display: inline !important;&quot;&gt;Display&lt;/span&gt;&lt;div&gt;&lt;span style=&quot;background-color: light-dark(rgb(251, 251, 251), rgb(21, 21, 21)); color: light-dark(rgb(0, 0, 0), rgb(237, 237, 237));&quot;&gt;Dashboard&lt;/span&gt;&lt;/div&gt;" style="ellipse;whiteSpace=wrap;html=1;" parent="1" vertex="1">
          <mxGeometry x="195" y="273" width="120" height="80" as="geometry" />
        </mxCell>
        <mxCell id="gCicSmpqmSLNO9FE7GVW-16" value="Demo" style="ellipse;whiteSpace=wrap;html=1;" parent="1" vertex="1">
          <mxGeometry x="370" y="360" width="120" height="80" as="geometry" />
        </mxCell>
        <mxCell id="gCicSmpqmSLNO9FE7GVW-17" value="" style="endArrow=none;html=1;rounded=0;exitX=1;exitY=0.5;exitDx=0;exitDy=0;entryX=0.5;entryY=0.5;entryDx=0;entryDy=0;entryPerimeter=0;" parent="1" source="gCicSmpqmSLNO9FE7GVW-16" target="gCicSmpqmSLNO9FE7GVW-6" edge="1">
          <mxGeometry width="50" height="50" relative="1" as="geometry">
            <mxPoint x="390" y="498" as="sourcePoint" />
            <mxPoint x="520" y="458" as="targetPoint" />
          </mxGeometry>
        </mxCell>
        <mxCell id="gCicSmpqmSLNO9FE7GVW-19" value="" style="endArrow=none;html=1;rounded=0;exitX=0;exitY=0.5;exitDx=0;exitDy=0;entryX=0.5;entryY=0.5;entryDx=0;entryDy=0;entryPerimeter=0;" parent="1" source="gCicSmpqmSLNO9FE7GVW-12" target="gCicSmpqmSLNO9FE7GVW-5" edge="1">
          <mxGeometry width="50" height="50" relative="1" as="geometry">
            <mxPoint x="401" y="508" as="sourcePoint" />
            <mxPoint x="531" y="468" as="targetPoint" />
          </mxGeometry>
        </mxCell>
        <mxCell id="gCicSmpqmSLNO9FE7GVW-20" value="" style="endArrow=none;html=1;rounded=0;entryX=0.5;entryY=0.5;entryDx=0;entryDy=0;entryPerimeter=0;exitX=0;exitY=0.5;exitDx=0;exitDy=0;" parent="1" source="gCicSmpqmSLNO9FE7GVW-7" target="gCicSmpqmSLNO9FE7GVW-5" edge="1">
          <mxGeometry width="50" height="50" relative="1" as="geometry">
            <mxPoint x="181" y="458" as="sourcePoint" />
            <mxPoint x="541" y="478" as="targetPoint" />
          </mxGeometry>
        </mxCell>
        <mxCell id="gCicSmpqmSLNO9FE7GVW-21" value="" style="endArrow=none;html=1;rounded=0;exitX=0.5;exitY=0.5;exitDx=0;exitDy=0;exitPerimeter=0;" parent="1" source="gCicSmpqmSLNO9FE7GVW-5" target="gCicSmpqmSLNO9FE7GVW-10" edge="1">
          <mxGeometry width="50" height="50" relative="1" as="geometry">
            <mxPoint x="421" y="467" as="sourcePoint" />
            <mxPoint x="551" y="427" as="targetPoint" />
          </mxGeometry>
        </mxCell>
        <mxCell id="gCicSmpqmSLNO9FE7GVW-22" value="" style="endArrow=none;html=1;rounded=0;exitX=1;exitY=0.5;exitDx=0;exitDy=0;entryX=0.5;entryY=0.5;entryDx=0;entryDy=0;entryPerimeter=0;" parent="1" source="gCicSmpqmSLNO9FE7GVW-9" target="gCicSmpqmSLNO9FE7GVW-2" edge="1">
          <mxGeometry width="50" height="50" relative="1" as="geometry">
            <mxPoint x="441" y="552" as="sourcePoint" />
            <mxPoint x="581" y="602" as="targetPoint" />
          </mxGeometry>
        </mxCell>
        <mxCell id="gCicSmpqmSLNO9FE7GVW-27" value="include" style="endArrow=open;endSize=12;dashed=1;html=1;rounded=0;" parent="1" target="HMTqIPbpE1acHHkSWWVp-4" edge="1">
          <mxGeometry width="160" relative="1" as="geometry">
            <mxPoint x="310" y="230" as="sourcePoint" />
            <mxPoint x="360" y="380" as="targetPoint" />
          </mxGeometry>
        </mxCell>
        <mxCell id="gCicSmpqmSLNO9FE7GVW-29" value="Register and Login" style="ellipse;whiteSpace=wrap;html=1;" parent="1" vertex="1">
          <mxGeometry x="195" y="650" width="120" height="80" as="geometry" />
        </mxCell>
        <mxCell id="gCicSmpqmSLNO9FE7GVW-33" value="" style="endArrow=none;html=1;rounded=0;entryX=0.5;entryY=0.5;entryDx=0;entryDy=0;entryPerimeter=0;exitX=0;exitY=0.5;exitDx=0;exitDy=0;" parent="1" source="gCicSmpqmSLNO9FE7GVW-29" target="gCicSmpqmSLNO9FE7GVW-5" edge="1">
          <mxGeometry width="50" height="50" relative="1" as="geometry">
            <mxPoint x="240" y="400" as="sourcePoint" />
            <mxPoint x="146" y="407" as="targetPoint" />
          </mxGeometry>
        </mxCell>
        <mxCell id="gCicSmpqmSLNO9FE7GVW-37" value="extend" style="endArrow=open;endSize=12;dashed=1;html=1;rounded=0;entryX=0;entryY=0.5;entryDx=0;entryDy=0;exitX=1;exitY=0.5;exitDx=0;exitDy=0;" parent="1" source="gCicSmpqmSLNO9FE7GVW-29" target="gCicSmpqmSLNO9FE7GVW-9" edge="1">
          <mxGeometry width="160" relative="1" as="geometry">
            <mxPoint x="523" y="509" as="sourcePoint" />
            <mxPoint x="590" y="477" as="targetPoint" />
          </mxGeometry>
        </mxCell>
        <mxCell id="gCicSmpqmSLNO9FE7GVW-40" value="&lt;div style=&quot;text-align: center;&quot;&gt;&lt;span style=&quot;background-color: initial;&quot;&gt;&lt;font style=&quot;font-size: 14px;&quot;&gt;Use Case Diagram&lt;/font&gt;&lt;/span&gt;&lt;/div&gt;" style="text;whiteSpace=wrap;html=1;" parent="1" vertex="1">
          <mxGeometry x="170" y="141" width="160" height="40" as="geometry" />
        </mxCell>
        <mxCell id="BNRyQbqNDulAxiigoT3A-3" value="Export&amp;nbsp;&lt;div&gt;&lt;span class=&quot;fontstyle0&quot;&gt;Financial Reports&lt;/span&gt;&lt;/div&gt;" style="ellipse;whiteSpace=wrap;html=1;" parent="1" vertex="1">
          <mxGeometry x="195" y="543" width="120" height="80" as="geometry" />
        </mxCell>
        <mxCell id="BNRyQbqNDulAxiigoT3A-4" value="Data Storage" style="ellipse;whiteSpace=wrap;html=1;" parent="1" vertex="1">
          <mxGeometry x="195" y="190" width="120" height="80" as="geometry" />
        </mxCell>
        <mxCell id="BNRyQbqNDulAxiigoT3A-5" value="" style="endArrow=none;html=1;rounded=0;exitX=0;exitY=0.5;exitDx=0;exitDy=0;entryX=0.5;entryY=0.5;entryDx=0;entryDy=0;entryPerimeter=0;" parent="1" source="BNRyQbqNDulAxiigoT3A-4" edge="1" target="gCicSmpqmSLNO9FE7GVW-5">
          <mxGeometry width="50" height="50" relative="1" as="geometry">
            <mxPoint x="205" y="323" as="sourcePoint" />
            <mxPoint x="90" y="460" as="targetPoint" />
          </mxGeometry>
        </mxCell>
        <mxCell id="BNRyQbqNDulAxiigoT3A-6" value="" style="endArrow=none;html=1;rounded=0;exitX=0;exitY=0.388;exitDx=0;exitDy=0;exitPerimeter=0;" parent="1" source="BNRyQbqNDulAxiigoT3A-3" edge="1">
          <mxGeometry width="50" height="50" relative="1" as="geometry">
            <mxPoint x="215" y="333" as="sourcePoint" />
            <mxPoint x="90" y="460" as="targetPoint" />
          </mxGeometry>
        </mxCell>
        <mxCell id="HMTqIPbpE1acHHkSWWVp-3" value="Monitor Platform" style="ellipse;whiteSpace=wrap;html=1;" vertex="1" parent="1">
          <mxGeometry x="364" y="545" width="120" height="80" as="geometry" />
        </mxCell>
        <mxCell id="HMTqIPbpE1acHHkSWWVp-4" value="&lt;span data-teams=&quot;true&quot;&gt;Bcrypt&lt;/span&gt;&lt;div&gt;&lt;span data-teams=&quot;true&quot;&gt;Library&lt;/span&gt;&lt;/div&gt;" style="ellipse;whiteSpace=wrap;html=1;" vertex="1" parent="1">
          <mxGeometry x="366" y="190" width="120" height="80" as="geometry" />
        </mxCell>
        <mxCell id="HMTqIPbpE1acHHkSWWVp-5" value="" style="endArrow=none;html=1;rounded=0;exitX=1;exitY=0.5;exitDx=0;exitDy=0;entryX=0.5;entryY=0.5;entryDx=0;entryDy=0;entryPerimeter=0;" edge="1" parent="1" source="HMTqIPbpE1acHHkSWWVp-3" target="gCicSmpqmSLNO9FE7GVW-2">
          <mxGeometry width="50" height="50" relative="1" as="geometry">
            <mxPoint x="499" y="700" as="sourcePoint" />
            <mxPoint x="600" y="580" as="targetPoint" />
          </mxGeometry>
        </mxCell>
        <mxCell id="HMTqIPbpE1acHHkSWWVp-7" value="extend" style="endArrow=open;endSize=12;dashed=1;html=1;rounded=0;exitX=1;exitY=0.5;exitDx=0;exitDy=0;" edge="1" parent="1" source="gCicSmpqmSLNO9FE7GVW-7" target="gCicSmpqmSLNO9FE7GVW-16">
          <mxGeometry width="160" relative="1" as="geometry">
            <mxPoint x="320" y="265" as="sourcePoint" />
            <mxPoint x="376" y="265" as="targetPoint" />
          </mxGeometry>
        </mxCell>
        <mxCell id="HMTqIPbpE1acHHkSWWVp-8" value="extend" style="endArrow=open;endSize=12;dashed=1;html=1;rounded=0;exitX=1;exitY=0.5;exitDx=0;exitDy=0;entryX=0;entryY=0;entryDx=0;entryDy=0;" edge="1" parent="1" source="gCicSmpqmSLNO9FE7GVW-12" target="gCicSmpqmSLNO9FE7GVW-16">
          <mxGeometry width="160" relative="1" as="geometry">
            <mxPoint x="325" y="410" as="sourcePoint" />
            <mxPoint x="380" y="410" as="targetPoint" />
          </mxGeometry>
        </mxCell>
        <mxCell id="HMTqIPbpE1acHHkSWWVp-9" value="extend" style="endArrow=open;endSize=12;dashed=1;html=1;rounded=0;exitX=1;exitY=0.5;exitDx=0;exitDy=0;entryX=0;entryY=1;entryDx=0;entryDy=0;" edge="1" parent="1" source="gCicSmpqmSLNO9FE7GVW-10" target="gCicSmpqmSLNO9FE7GVW-16">
          <mxGeometry width="160" relative="1" as="geometry">
            <mxPoint x="335" y="420" as="sourcePoint" />
            <mxPoint x="380" y="430" as="targetPoint" />
          </mxGeometry>
        </mxCell>
        <mxCell id="HMTqIPbpE1acHHkSWWVp-10" value="extend" style="endArrow=open;endSize=12;dashed=1;html=1;rounded=0;exitX=1;exitY=0.5;exitDx=0;exitDy=0;entryX=0.5;entryY=1;entryDx=0;entryDy=0;" edge="1" parent="1" source="BNRyQbqNDulAxiigoT3A-3" target="gCicSmpqmSLNO9FE7GVW-16">
          <mxGeometry width="160" relative="1" as="geometry">
            <mxPoint x="345" y="430" as="sourcePoint" />
            <mxPoint x="400" y="440" as="targetPoint" />
          </mxGeometry>
        </mxCell>
      </root>
    </mxGraphModel>
  </diagram>
</mxfile>
